#!OML:ASF F:\VICON\USERDATA\INSTALL\rory3\rory3.ASF
:FULLY-SPECIFIED
:DEGREES
160
root 14.4043 17.6018 1.10055 -172.963 -70.4276 172.463
lowerback 10.2475 2.50451 -2.45465
upperback -0.241244 3.00819 -0.154163
thorax -6.12334 1.54182 0.755104
lowerneck -19.4074 -2.61359 -11.5791
upperneck 34.9965 -3.34961 6.81157
head 16.0396 -2.39638 4.2419
rclavicle 2.69105e-014 -9.34288e-015
rhumerus -34.9422 -18.365 -78.8885
rradius 33.0146
rwrist 9.99859
rhand -14.278 10.1038
rfingers 7.12502
rthumb 11.8611 -19.5403
lclavicle 2.69105e-014 -9.34288e-015
lhumerus -31.9913 5.66757 77.9444
lradius 30.3963
lwrist -6.63898
lhand -19.553 24.9415
lfingers 7.12502
lthumb 6.77135 54.8132
rfemur -9.41915 -10.2168 20.6071
rtibia 45.9588
rfoot -23.4688 7.25999
rtoes -2.86176
lfemur -4.56578 -1.29791 -23.0019
ltibia 27.9312
lfoot -18.7914 -7.52562
ltoes -3.13699
161
root 14.3995 17.5883 1.14796 -173.145 -69.9029 172.656
lowerback 10.2378 2.53952 -2.39061
upperback -0.296057 3.05929 -0.211316
thorax -6.17092 1.56493 0.650259
lowerneck -19.4293 -2.59537 -11.6513
upperneck 35.1283 -3.31879 6.8234
head 16.1087 -2.402 4.27027
rclavicle -7.03449e-014 -4.77083e-015
rhumerus -35.0983 -18.5254 -78.8136
rradius 32.7768
rwrist 10.0642
rhand -14.687 10.0113
rfingers 7.12502
rthumb 11.4666 -19.6551
lclavicle -7.03449e-014 -4.77083e-015
lhumerus -32.0747 5.6533 77.8155
lradius 30.5356
lwrist -6.60866
lhand -20.0932 25.2139
lfingers 7.12502
lthumb 6.24986 55.1017
rfemur -8.98604 -9.75566 20.9877
rtibia 45.1454
rfoot -23.0828 5.26527
rtoes -0.0075682
lfemur -4.70869 -0.736595 -23.0703
ltibia 28.2572
lfoot -19.1832 -7.82837
ltoes -3.91643
162
root 14.3937 17.5795 1.19157 -173.355 -69.4093 172.754
lowerback 10.2777 2.56333 -2.34638
upperback -0.24219 3.09044 -0.270372
thorax -6.13175 1.5765 0.5587
lowerneck -19.4916 -2.61107 -11.6236
upperneck 35.1213 -3.29969 6.70658
head 16.1153 -2.40582 4.21643
rclavicle 1.08089e-015 2.78299e-015
rhumerus -35.0312 -18.6056 -78.7723
rradius 32.4277
rwrist 9.86991
rhand -14.8889 10.0221
rfingers 7.12502
rthumb 11.2719 -19.6551
lclavicle 1.08089e-015 2.78299e-015
lhumerus -32.0388 5.35284 77.8899
lradius 30.7431
lwrist -5.84901
lhand -20.9971 26.0231
lfingers 7.12502
lthumb 5.37711 55.9349
rfemur -8.4166 -9.14761 21.2795
rtibia 44.2125
rfoot -23.2154 2.52445
rtoes 1.01024
lfemur -4.73607 -0.130187 -23.1244
ltibia 28.6054
lfoot -19.337 -8.54208
ltoes -1.87352
163
root 14.3873 17.5719 1.23997 -173.383 -68.8476 172.688
lowerback 10.321 2.59199 -2.33995
upperback -0.200739 3.12412 -0.318349
thorax -6.11035 1.59096 0.498941
lowerneck -19.4988 -2.59957 -11.5978
upperneck 35.025 -3.22409 6.56001
head 16.0559 -2.38611 4.15693
rclavicle 3.85642e-014 -9.93923e-015
rhumerus -34.935 -18.6473 -78.6916
rradius 32.1098
rwrist 9.74421
rhand -14.6753 9.80793
rfingers 7.12502
rthumb 11.4779 -19.8579
lclavicle 3.85642e-014 -9.93923e-015
lhumerus -32.0202 5.17542 78.1312
lradius 30.9568
lwrist -4.4178
lhand -21.965 25.9943
lfingers 7.12502
lthumb 4.44261 55.9277
rfemur -7.93357 -8.50012 21.4129
rtibia 43.2006
rfoot -23.7623 -0.0956768
rtoes -0.358151
lfemur -4.85233 0.243545 -23.3103
ltibia 29.0268
lfoot -19.308 -9.15741
ltoes 1.80114
164
root 14.3819 17.5688 1.29674 -173.471 -68.3502 172.793
lowerback 10.3599 2.63055 -2.12581
upperback -0.235088 3.19589 -0.388197
thorax -6.15453 1.61889 0.29199
lowerneck -19.3885 -2.59445 -11.6459
upperneck 34.9508 -3.23782 6.62355
head 15.9964 -2.38954 4.18718
rclavicle -4.15833e-014 -4.57205e-015
rhumerus -34.9707 -18.6914 -78.5673
rradius 31.8777
rwrist 9.53672
rhand -14.7699 9.47802
rfingers 7.12502
rthumb 11.3867 -20.1928
lclavicle -4.15833e-014 -4.57205e-015
lhumerus -31.968 5.69006 77.9002
lradius 30.9039
lwrist -5.37797
lhand -20.4916 24.8872
lfingers 7.12502
lthumb 5.86523 54.786
rfemur -7.63939 -8.05588 21.5104
rtibia 42.1792
rfoot -24.3047 -1.73335
rtoes -0.566676
lfemur -5.16899 0.523021 -23.472
ltibia 29.5572
lfoot -19.4414 -9.39322
ltoes 2.13419
165
root 14.3795 17.5593 1.34365 -173.924 -67.9164 173.184
lowerback 10.4657 2.68657 -1.8532
upperback -0.235316 3.29744 -0.439068
thorax -6.19799 1.65913 0.065264
lowerneck -19.3147 -2.62836 -11.6915
upperneck 34.9052 -3.30134 6.66939
head 15.9666 -2.41634 4.20095
rclavicle -7.12395e-014 1.03368e-014
rhumerus -35.0489 -18.9814 -78.3737
rradius 31.603
rwrist 9.44927
rhand -15.1336 9.40501
rfingers 7.12502
rthumb 11.0359 -20.2849
lclavicle -7.12395e-014 1.03368e-014
lhumerus -31.97 5.55656 77.9281
lradius 31.0779
lwrist -5.42926
lhand -20.5288 24.7939
lfingers 7.12502
lthumb 5.82934 54.6937
rfemur -7.19512 -7.70858 21.7095
rtibia 41.2317
rfoot -24.6567 -2.49892
rtoes 1.05227
lfemur -5.39295 1.12309 -23.3773
ltibia 30.1775
lfoot -19.6937 -10.0527
ltoes 1.39923
166
root 14.3803 17.5482 1.40507 -174.447 -67.5404 173.598
lowerback 10.7204 2.64706 -1.39154
upperback -0.212642 3.29107 -0.508923
thorax -6.28654 1.63929 -0.276487
lowerneck -19.3527 -2.61161 -11.7261
upperneck 34.8586 -3.24679 6.65509
head 15.9461 -2.39753 4.20935
rclavicle -8.11538e-014 2.18663e-015
rhumerus -35.0357 -19.2064 -78.26
rradius 31.3137
rwrist 9.6672
rhand -15.0594 9.49594
rfingers 7.12502
rthumb 11.1075 -20.1901
lclavicle -8.11538e-014 2.18663e-015
lhumerus -31.9928 5.53563 77.9223
lradius 31.3381
lwrist -5.25352
lhand -20.3158 24.4468
lfingers 7.12502
lthumb 6.03497 54.3409
rfemur -6.70811 -7.50147 21.8033
rtibia 40.3663
rfoot -24.6894 -2.68896
rtoes 3.0616
lfemur -5.69554 1.55237 -23.3086
ltibia 30.923
lfoot -19.8363 -10.7913
ltoes 1.17911
167
root 14.38 17.5409 1.4584 -174.584 -67.1185 173.646
lowerback 10.8996 2.59276 -1.18307
upperback -0.19625 3.23574 -0.583341
thorax -6.35341 1.60325 -0.470177
lowerneck -19.4392 -2.54318 -11.6429
upperneck 34.8606 -3.09116 6.47161
head 15.9419 -2.3461 4.14291
rclavicle 3.24143e-014 -1.88845e-014
rhumerus -34.9567 -19.2295 -78.2226
rradius 30.952
rwrist 9.93694
rhand -14.7903 9.4958
rfingers 7.12502
rthumb 11.367 -20.1761
lclavicle 3.24143e-014 -1.88845e-014
lhumerus -32.0491 5.73787 77.8684
lradius 31.5965
lwrist -4.98976
lhand -19.177 24.0933
lfingers 7.12502
lthumb 7.13427 53.953
rfemur -6.26558 -6.95694 21.7854
rtibia 39.5761
rfoot -24.876 -3.40257
rtoes 2.8895
lfemur -6.1058 2.16216 -23.3557
ltibia 31.7721
lfoot -19.9272 -11.6137
ltoes 0.138537
168
root 14.3786 17.5357 1.51361 -174.84 -66.7052 173.83
lowerback 11.0535 2.60057 -0.915824
upperback -0.144242 3.27464 -0.614067
thorax -6.36815 1.61221 -0.664032
lowerneck -19.546 -2.57916 -11.7258
upperneck 34.8541 -3.09521 6.46792
head 15.9675 -2.35713 4.15545
rclavicle -6.48038e-014 1.43125e-014
rhumerus -34.884 -19.3981 -78.047
rradius 30.7052
rwrist 10.0425
rhand -14.6956 9.28095
rfingers 7.12502
rthumb 11.4583 -20.3859
lclavicle -6.48038e-014 1.43125e-014
lhumerus -31.9944 5.8628 77.9935
lradius 31.8374
lwrist -4.85009
lhand -18.5758 24.4642
lfingers 7.12502
lthumb 7.71464 54.3034
rfemur -5.88602 -6.30363 21.7633
rtibia 38.8522
rfoot -25.2377 -4.19852
rtoes 2.26399
lfemur -6.54059 2.71425 -23.3581
ltibia 32.6851
lfoot -20.2464 -12.0877
ltoes -2.74806
169
root 14.3793 17.5253 1.57011 -175.294 -66.26 174.195
lowerback 11.2285 2.63734 -0.623661
upperback -0.0624931 3.36037 -0.572928
thorax -6.36549 1.64447 -0.804528
lowerneck -19.5902 -2.62936 -11.8981
upperneck 34.7465 -3.10092 6.50997
head 15.9316 -2.36907 4.19989
rclavicle -4.92862e-014 1.19271e-015
rhumerus -34.7452 -19.5498 -77.7958
rradius 30.4863
rwrist 10.1452
rhand -14.5292 9.09827
rfingers 7.12502
rthumb 11.6188 -20.5596
lclavicle -4.92862e-014 1.19271e-015
lhumerus -31.9173 6.13196 78.1458
lradius 32.1076
lwrist -5.00309
lhand -20.3475 25.2491
lfingers 7.12502
lthumb 6.00434 55.144
rfemur -5.5127 -5.76138 21.7366
rtibia 38.16
rfoot -25.5217 -4.6094
rtoes 1.94878
lfemur -6.96152 3.25642 -23.2347
ltibia 33.6457
lfoot -20.3784 -12.6927
ltoes -5.07291
170
root 14.3796 17.5113 1.62793 -175.555 -65.7805 174.419
lowerback 11.3787 2.64317 -0.347727
upperback -0.0608469 3.40039 -0.602246
thorax -6.42994 1.65392 -1.00391
lowerneck -19.5013 -2.59514 -11.7947
upperneck 34.6136 -3.03852 6.37223
head 15.8318 -2.34318 4.12675
rclavicle 2.15433e-014 1.39149e-015
rhumerus -34.8415 -19.6191 -77.6535
rradius 30.5045
rwrist 10.4018
rhand -14.336 8.89978
rfingers 7.12502
rthumb 11.8051 -20.7475
lclavicle 2.15433e-014 1.39149e-015
lhumerus -31.9951 6.38776 78.2012
lradius 32.4153
lwrist -4.91087
lhand -17.921 24.4197
lfingers 7.12502
lthumb 8.34656 54.2348
rfemur -5.21618 -5.17204 21.6075
rtibia 37.5087
rfoot -25.7626 -4.50337
rtoes 2.38612
lfemur -7.49029 3.82591 -23.1338
ltibia 34.6624
lfoot -20.3079 -13.8191
ltoes -4.81916
